<svg width="833" height="301" viewBox="0 0 833 301" fill="none" xmlns="http://www.w3.org/2000/svg">
<path d="M0.998535 59.7781L59.9608 25.588L135.254 70.3543L157.542 57.7024L82.1143 13.0218L103.94 0.251953L207.663 60.8746L104.556 120.213L0.998535 59.7781Z" fill="black"/>
<path d="M140.159 300.252L81.0842 266.257L82.1858 178.633L60.0909 165.647L59.1306 253.344L37.1649 240.818L37.7758 120.631L140.69 180.303L140.159 300.252Z" fill="black"/>
<path d="M278.999 128.923L278.886 60.7376L174.797 120.252L174.605 239.262L278.939 179.698L278.799 154.402L202.411 197.418L202.604 171.78L278.999 128.923Z" fill="black"/>
<path d="M410.655 169.696H382.937L382.937 201.242H410.655V169.696Z" fill="black"/>
<path d="M439.484 144.369H383.007V59.5407H410.576V124.356H422.399L408.298 144.369L468.067 59.5405L499.507 59.5407L439.484 144.369Z" fill="black"/>
<path d="M438.415 169.696L451.26 201.242H482.941L470.179 169.696H438.415Z" fill="black"/>
<path d="M525.782 169.696V201.242H553.333V169.696H525.782Z" fill="black"/>
<path d="M579.71 169.696V201.242H607.331V169.696H579.71Z" fill="black"/>
<path d="M641.364 169.696L654.201 201.242H685.805L673.071 169.696H641.364Z" fill="black"/>
<path fill-rule="evenodd" clip-rule="evenodd" d="M653.556 144.369H579.71V59.5407H633.182C648.779 59.5407 660.661 63.9345 668.831 72.356C677 80.7776 681.085 91.3961 681.085 103.845C681.085 113.365 678.485 121.787 673.287 129.476C668.555 136.141 661.978 141.289 653.556 144.369ZM632.811 84.073H579.71V124.35H629.841C637.639 124.35 643.58 122.519 647.665 118.491C651.749 114.83 653.606 109.704 653.606 103.845C653.606 97.9868 651.749 93.2268 648.036 89.5653C644.323 85.9037 639.495 84.073 632.811 84.073Z" fill="black"/>
<path d="M710.95 169.696L698.55 201.242H729.851L742.595 169.696H710.95Z" fill="black"/>
<path d="M801.41 201.242H832.937L785.875 59.5407H754.25L720.906 144.369H751.955L785.875 59.5407L768.745 102.38L801.41 201.242Z" fill="black"/>
<path d="M553.333 144.369H525.782V59.5407H553.333V144.369Z" fill="black"/>
</svg>
