<svg width="833" height="301" viewBox="0 0 833 301" fill="none" xmlns="http://www.w3.org/2000/svg">
<path d="M0.998535 60.0728L59.9608 25.8826L135.254 70.649L157.542 57.9971L82.1143 13.3165L103.94 0.546631L207.663 61.1693L104.556 120.508L0.998535 60.0728Z" fill="white"/>
<path d="M140.159 300.547L81.0842 266.552L82.1858 178.928L60.0909 165.942L59.1306 253.639L37.1649 241.113L37.7758 120.926L140.69 180.598L140.159 300.547Z" fill="white"/>
<path d="M278.999 129.217L278.886 61.0322L174.797 120.546L174.605 239.556L278.939 179.992L278.799 154.696L202.411 197.713L202.604 172.075L278.999 129.217Z" fill="white"/>
<path d="M410.655 169.99H382.937L382.937 201.537H410.655V169.99Z" fill="white"/>
<path d="M439.484 144.664H383.007V59.8353H410.576V124.651H422.399L408.298 144.664L468.067 59.8352L499.507 59.8353L439.484 144.664Z" fill="white"/>
<path d="M438.415 169.99L451.26 201.537H482.941L470.179 169.99H438.415Z" fill="white"/>
<path d="M525.782 169.99V201.537H553.333V169.99H525.782Z" fill="white"/>
<path d="M579.71 169.99V201.537H607.331V169.99H579.71Z" fill="white"/>
<path d="M641.364 169.99L654.201 201.537H685.805L673.071 169.99H641.364Z" fill="white"/>
<path fill-rule="evenodd" clip-rule="evenodd" d="M653.556 144.664H579.71V59.8353H633.182C648.779 59.8353 660.661 64.2292 668.831 72.6507C677 81.0723 681.085 91.6907 681.085 104.14C681.085 113.66 678.485 122.082 673.287 129.771C668.555 136.436 661.978 141.584 653.556 144.664ZM632.811 84.3677H579.71V124.645H629.841C637.639 124.645 643.58 122.814 647.665 118.786C651.749 115.125 653.606 109.998 653.606 104.14C653.606 98.2815 651.749 93.5215 648.036 89.86C644.323 86.1984 639.495 84.3677 632.811 84.3677Z" fill="white"/>
<path d="M710.95 169.99L698.55 201.537H729.851L742.595 169.99H710.95Z" fill="white"/>
<path d="M801.41 201.537H832.937L785.875 59.8353H754.25L720.906 144.664H751.955L785.875 59.8353L768.745 102.675L801.41 201.537Z" fill="white"/>
<path d="M553.333 144.664H525.782V59.8353H553.333V144.664Z" fill="white"/>
</svg>
