<svg width="83" height="30" viewBox="0 0 83 30" fill="none" xmlns="http://www.w3.org/2000/svg">
<path opacity="0.6" fill-rule="evenodd" clip-rule="evenodd" d="M1.07435 9.38169C0.501364 9.70273 0 9.45303 0 8.77527V5.99286L10.4212 0V2.7824C10.4212 3.46017 9.95565 4.28062 9.34685 4.60166L1.07435 9.38169Z" fill="#298DFF"/>
<path opacity="0.6" fill-rule="evenodd" clip-rule="evenodd" d="M16.3284 28.6086C16.9014 28.2876 16.9014 27.7169 16.3284 27.3958L8.02009 22.6158C7.4471 22.2947 6.48018 22.2947 5.9072 22.6158L3.50781 24.007L13.929 29.9998L16.3284 28.6086Z" fill="#344AE6"/>
<path opacity="0.6" fill-rule="evenodd" clip-rule="evenodd" d="M25.3903 4.60178C24.8173 4.28073 24.3159 4.53043 24.3159 5.2082V14.7682C24.3159 15.446 24.7815 16.2665 25.3903 16.5875L27.7897 17.9787V5.99298L25.3903 4.60178Z" fill="#4264F2"/>
<path fill-rule="evenodd" clip-rule="evenodd" d="M0 5.99287L10.4212 0L19.8039 5.38644C20.3769 5.70749 20.3769 6.27824 19.8039 6.59929L11.4956 11.3793C10.9226 11.7004 9.95565 11.7004 9.38266 11.3793L0 5.99287Z" fill="#298DFF"/>
<path fill-rule="evenodd" clip-rule="evenodd" d="M3.47266 13.1983C3.47266 12.5206 3.93821 12.2709 4.54701 12.5919L12.8553 17.3719C13.4283 17.693 13.9297 18.5134 13.9297 19.1912V29.9641L3.47266 23.9712V13.1983Z" fill="#344AE6"/>
<path fill-rule="evenodd" clip-rule="evenodd" d="M18.4415 23.3653C17.8686 23.6864 17.3672 23.4367 17.3672 22.7589V13.1989C17.3672 12.5211 17.8327 11.7007 18.4415 11.3796L27.8242 5.99316V17.9789L18.4415 23.3653Z" fill="#4264F2"/>
<path d="M50.3165 20.6901H47.1651L43.0826 15.0896L41.3278 17.1943V20.6901H38.7852V6.8851H41.3278V13.6627L46.8428 6.8851H49.9226L44.7657 13.199L50.3165 20.6901Z" fill="black"/>
<path d="M52.1406 20.6898V6.88477H54.7191V20.6898H52.1406Z" fill="black"/>
<path d="M68.7243 20.6901H65.6803L62.6005 15.5177H60.8816V20.6901H58.3748V6.8851H63.5316C65.0357 6.8851 66.1817 7.31316 66.9696 8.13361C67.7574 8.95407 68.1513 9.98855 68.1513 11.2014C68.1513 12.1289 67.9007 12.9493 67.3993 13.6984C66.8979 14.4119 66.1817 14.9469 65.2506 15.2323L68.7243 20.6901ZM63.4958 9.27511H60.8816V13.199H63.2093C63.9614 13.199 64.5344 13.0207 64.9283 12.6283C65.3222 12.2715 65.5013 11.7721 65.5013 11.2014C65.5013 10.6306 65.3222 10.1669 64.9641 9.81019C64.606 9.45347 64.1404 9.27511 63.4958 9.27511Z" fill="black"/>
<path d="M82.4775 20.6898H79.7558L78.6098 17.5506H73.7036L72.5576 20.6898H69.8359L75.2077 6.88477H77.1773L82.4775 20.6898ZM77.8936 15.232L76.1746 10.5233L74.4915 15.232H77.8936Z" fill="black"/>
</svg>
