<svg width="15" height="22" viewBox="0 0 15 22" fill="none" xmlns="http://www.w3.org/2000/svg">
    <path d="M10.2233 19.9415C10.2233 20.5894 10.2233 20.9134 10.0871 21.1028C9.9682 21.268 9.78528 21.3755 9.58311 21.3991C9.3514 21.426 9.06831 21.2685 8.50213 20.9535L1.28635 16.9384C1.06979 16.8179 0.961514 16.7577 0.882672 16.672C0.812923 16.5963 0.760143 16.5065 0.727857 16.4087C0.691361 16.2982 0.691361 16.1743 0.691361 15.9265V2.13531C0.691361 1.48739 0.691361 1.16343 0.827578 0.974054C0.946426 0.808828 1.12935 0.701279 1.33152 0.677761C1.56323 0.650806 1.84632 0.808323 2.4125 1.12336L9.62828 5.13838C9.84484 5.25888 9.95311 5.31913 10.032 5.40476C10.1017 5.48052 10.1545 5.57029 10.1868 5.66807C10.2233 5.7786 10.2233 5.90252 10.2233 6.15034V19.9415Z"
          fill="#298DFF"/>
    <path opacity="0.8"
          d="M5.26612 20.6801C5.26612 21.2322 5.85939 21.581 6.34183 21.3126L14.4262 16.8143C14.6557 16.6866 14.798 16.4445 14.798 16.1818V1.3967C14.798 0.84461 14.2047 0.49579 13.7223 0.764229L5.63798 5.26253C5.40844 5.39026 5.26612 5.63232 5.26612 5.895V20.6801Z"
          fill="#344AE6"/>
</svg>
